PathFileType	4	(X/Y/Z)	C:/Users/beibeiliu/ov580/test_trc/User2\sequence.6_training_dense_right.trc
DataRate	CameraRate	NumFrames	NumMarkers	Units	OrigDataRate	OrigDataStartFrame	OrigNumFrames
120	120	16	19	mm	120	191	381
Frame#	Time	ThumbCMC			ThumbMCP			ThumbIP			ThumbTip			IndexMCP			IndexPIP			IndexTip			MiddleMCP			MiddlePIP			MiddleTip			RingMCP			RingPIP			RingTip			PinkyMCP			PinkyPIP			PinkyTip			BackHand1			BackHand2			BackHand3	
		X0	Y0	Z0	X1	Y1	Z1	X2	Y2	Z2	X3	Y3	Z3	X4	Y4	Z4	X5	Y5	Z5	X6	Y6	Z6	X7	Y7	Z7	X8	Y8	Z8	X9	Y9	Z9	X10	Y10	Z10	X11	Y11	Z11	X12	Y12	Z12	X13	Y13	Z13	X14	Y14	Z14	X15	Y15	Z15	X16	Y16	Z16	X17	Y17	Z17	X18	Y18	Z18	
190	1.58333	24.1516	7.3048	102.334	30.8738	-26.9847	79.5746	44.3224	-49.8955	56.22	66.7305	-51.1784	33.7696	20.0348	20.7688	17.6204	21.125	10.6008	-12.0969	29.9404	-8.15308	-36.0959	53.115	11.3929	11.5559	67.7136	-26.5549	10.2694	67.8982	-38.0081	49.0529	76.8671	1.30239	18.0791	82.815	-26.0224	26.4747	77.7348	-33.6816	64.4487	93.6002	11.0503	33.7555	92.6969	-22.0756	46.083	80.8899	-19.0147	74.7596	69.3927	52.8416	60.7853	66.2768	65.095	97.2551	30.6649	47.5348	82.8205	
191	1.59167	25.261	3.45826	98.5285	34.0637	-27.2241	83.9396	48.5278	-52.356	53.4947	68.2963	-54.136	36.6184	23.9408	19.7427	16.4855	26.088	8.26882	-10.4832	36.55	-14.1911	-27.4075	55.8486	8.70153	9.84471	69.8594	-23.018	9.31715	68.9141	-38.4586	47.5454	78.3494	7.89079	20.904	84.3292	-23.8936	27.9519	76.9284	-31.7005	62.9734	97.6485	11.6565	34.7914	97.8983	-20.208	49.6025	78.1954	-17.522	77.018	61.0749	53.7432	64.3276	60.3712	62.7373	98.79	31.562	44.5217	81.7841	
192	1.6	23.6953	-1.00765	100.27	34.7505	-35.0313	82.5148	52.5343	-50.278	54.554	72.5395	-53.433	36.7661	21.1052	15.0126	19.4725	32.7046	5.67044	-7.11168	50.2855	-25.7487	-17.1941	55.5422	8.90568	11.5026	70.22	-24.738	11.5382	70.7021	-39.9509	48.2759	77.2863	3.62555	20.6432	89.4406	-22.1671	29.765	76.2942	-30.1453	66.292	92.9373	10.4842	35.5178	97.4146	-19.8964	50.894	85.0223	-18.8202	79.4079	59.9843	51.2267	66.139	55.7189	60.4994	96.7491	25.9224	42.143	87.7725	
193	1.60833	26.2411	-4.05537	104.232	39.2811	-37.747	79.9202	55.9619	-55.2992	59.6483	77.4651	-53.6615	36.3698	22.0633	11.1204	23.0419	33.2041	-1.58593	-6.40412	53.2632	-33.0761	-6.39339	52.8706	4.52117	12.557	70.1495	-24.1491	10.108	73.5434	-40.0415	46.9967	76.8036	8.02102	23.5487	87.0195	-24.0811	32.053	78.9978	-29.4598	68.4352	96.5536	14.9108	38.4802	99.9892	-19.2897	53.4784	85.5969	-17.0516	82.5123	58.0616	51.3097	63.5681	55.615	61.8211	100.857	24.6039	37.6854	89.0953	
194	1.61667	25.2866	-12.2985	103.844	41.7968	-43.0776	81.8539	60.7729	-58.8322	55.7522	81.4227	-53.4757	38.0733	23.6802	7.14527	19.6546	35.0926	-8.41855	-6.45634	58.3201	-32.3758	-2.02578	54.5854	2.69359	11.9123	76.3155	-25.8687	12.5515	78.7661	-41.1111	48.9927	77.0573	3.94267	24.009	91.7956	-22.2313	32.7393	85.5902	-28.9014	67.4314	91.497	9.65725	36.5968	102.376	-16.041	51.2953	85.4445	-19.8676	77.9899	53.3354	45.1381	65.4607	49.4001	57.1325	100.236	20.6846	31.1532	86.7547	
195	1.625	27.9314	-15.8107	102.38	46.5141	-44.0868	81.77	65.5693	-59.2503	59.7183	85.1524	-51.2293	40.1691	21.3942	0.649396	21.289	32.0506	-13.1699	-5.92929	56.0624	-41.1666	-3.17396	49.9848	-2.20163	13.6779	74.6262	-29.5753	12.9236	83.3548	-40.8506	48.4283	78.3192	1.52887	25.4072	92.6052	-23.3482	33.6232	85.232	-30.9947	69.5998	92.2784	9.68386	37.5036	103.643	-16.6361	52.9382	83.8447	-21.8572	81.7691	48.3155	40.0869	70.7466	47.1503	51.377	102.185	21.1685	25.5621	90.2046	
196	1.63333	29.0036	-21.0685	106.552	48.7219	-47.6892	84.1508	68.4427	-61.5822	61.45	87.8511	-58.0602	40.0611	17.7491	-4.01218	23.1311	29.0658	-15.4971	-3.60723	52.6894	-40.0311	-9.62051	51.0379	-4.92754	15.2054	76.1814	-31.2227	13.8907	82.2597	-45.2017	52.8568	73.3385	-1.32596	26.0734	94.1286	-25.4008	35.4109	88.3597	-32.7553	70.6316	87.4931	8.52054	39.933	101.533	-20.4535	56.1003	91.5204	-24.8906	83.3425	48.3753	41.0861	68.931	45.8867	48.7696	107.187	20.4441	20.6986	91.4114	
197	1.64167	29.6189	-22.6606	109.928	49.3549	-51.3311	84.868	68.9901	-65.0211	60.6384	88.5375	-58.7746	44.5472	17.0699	-6.24185	28.0364	27.3132	-16.3247	-3.91927	49.4355	-33.5027	-13.768	46.4271	-4.32193	19.7995	72.5391	-29.9508	12.3196	83.3746	-45.6785	53.1174	71.5085	-2.61022	27.8812	93.701	-26.4607	37.2025	87.4606	-37.0676	68.4563	90.3367	12.1414	41.4424	100.948	-20.6682	55.2191	87.586	-25.2645	81.0076	46.9295	36.386	71.3693	42.1071	44.4999	110.029	15.8838	17.3887	93.8277	
198	1.65	29.868	-22.7299	110.094	48.6382	-49.6626	91.3812	68.8882	-65.2525	63.2783	89.591	-61.6464	40.3632	13.7398	-7.75267	31.7793	23.8272	-14.4293	-2.17752	43.1142	-35.7682	-20.386	50.0707	-2.99761	19.4217	71.6352	-33.9747	13.9581	82.6801	-48.7752	49.8278	72.7901	-0.78347	29.382	92.0553	-28.8348	36.3349	87.3554	-38.6903	66.5074	88.9899	9.12933	40.6565	101.643	-20.9272	55.1273	91.1258	-27.6144	80.9704	46.3729	36.1831	74.812	40.3728	43.9775	105.728	19.2841	18.2265	95.7933	
199	1.65833	29.8937	-24.5377	106.219	49.5176	-54.059	85.7829	70.0544	-64.1128	60.1605	88.9507	-60.1451	42.5426	16.4173	-6.69581	27.6066	18.2552	-15.5469	-0.352937	39.216	-29.5889	-20.4865	48.3681	-5.26282	18.115	70.3889	-32.1827	12.6731	83.7391	-46.5895	51.1224	72.58	-1.82918	28.6742	89.1251	-30.0246	34.5673	89.23	-38.8697	70.0795	88.6035	10.7359	41.994	100.791	-22.6412	53.8237	88.5038	-28.9485	81.0102	47.2293	36.5693	71.5884	42.0498	43.7615	109.182	14.3361	14.8545	95.8541	
200	1.66667	30.794	-25.5253	107.809	50.2955	-52.5134	89.9084	71.2672	-66.1705	60.0407	90.2851	-62.3861	41.2052	15.2528	-8.31256	29.2457	22.6147	-14.4043	-3.28125	42.492	-30.5295	-21.0998	51.2811	-5.86427	17.5559	74.6349	-31.3907	12.7019	85.4104	-47.6533	49.1776	74.8878	-2.35692	27.1299	93.7031	-28.6744	35.6223	90.9594	-38.7802	71.4944	91.3107	9.82647	40.7884	99.821	-23.6598	53.3998	88.8315	-29.8469	81.952	43.4863	33.7002	72.6258	44.6196	45.0445	109.854	17.9975	16.0013	93.5825	
201	1.675	29.7824	-26.6293	108.433	51.1841	-54.41	84.6861	70.6499	-66.959	62.1447	91.8023	-61.6694	40.435	18.1666	-7.54374	27.6048	29.1831	-13.3377	-5.42714	50.0245	-33.8202	-18.2817	54.1181	-4.52674	17.1897	74.5578	-34.7505	10.9414	84.9694	-50.1386	50.2965	77.1462	-0.445734	27.5691	96.7912	-26.6205	33.1724	89.4354	-40.7441	67.7074	91.7114	9.25396	40.8764	104.337	-21.4135	51.205	89.8146	-27.8635	81.4553	50.5123	36.3817	70.4507	43.1851	43.0597	104.974	18.9784	13.2211	94.5335	
202	1.68333	32.6755	-25.5556	102.906	52.7684	-52.8104	85.0437	73.6914	-67.4863	57.6605	93.3749	-57.013	40.0002	22.2147	-7.32445	20.7194	37.7628	-16.3545	-6.57352	62.4716	-39.2722	-10.513	54.0157	-6.67683	16.8386	81.179	-34.6624	11.5591	85.4669	-51.1144	45.6955	78.9489	-5.49989	24.6558	98.3021	-30.9499	35.2655	91.9931	-39.1578	67.3085	97.2432	6.64953	39.2324	104.086	-24.1458	51.5246	92.8098	-28.5334	82.3526	51.6427	37.2388	70.4894	50.1224	44.1887	102.038	22.6864	15.7151	89.9397	
203	1.69167	31.8834	-27.1649	99.5434	52.3555	-54.965	83.0894	75.4485	-65.9847	56.8279	96.4565	-58.904	37.937	28.9507	-7.94734	17.1128	43.1349	-20.633	-8.29898	68.131	-48.7969	-3.36294	61.6524	-8.68134	11.5038	83.5251	-36.3247	11.5516	89.2878	-49.2994	49.8099	85.6918	-5.04436	24.1665	100.542	-33.9837	36.0211	92.9428	-37.5631	70.8751	99.9889	1.42681	36.7601	105.378	-26.3073	53.5952	94.1368	-28.9022	80.3621	55.4074	36.0028	66.443	53.4693	47.3989	102.615	23.5495	17.5798	84.4277	
204	1.7	34.6793	-23.568	101.788	54.0776	-51.2042	81.8603	74.2821	-68.3764	56.866	96.0936	-62.6101	40.128	34.0076	-5.74279	15.4653	46.9874	-23.3866	-9.18351	72.6224	-49.0305	-2.32558	65.6513	-8.27618	12.0951	87.923	-36.3472	12.3494	88.5857	-52.6801	49.3343	88.262	-9.60861	22.1567	104.62	-34.532	36.9914	91.3527	-40.5333	69.8091	102.07	1.93063	37.3731	111.419	-26.98	54.5911	95.1397	-29.7068	79.978	61.0925	34.5181	66.5637	56.4977	45.3568	98.3346	28.1979	18.4412	84.5155	
205	1.70833	35.1568	-21.3489	99.6395	48.9833	-53.2607	83.0333	69.7793	-68.4151	57.3704	91.7112	-61.6688	38.7287	33.4546	-4.62094	15.2607	44.2991	-21.2986	-10.9238	63.263	-44.0322	-12.5848	64.8606	-5.70645	14.1997	85.4782	-36.154	11.1004	87.6458	-51.3655	52.0538	90.9692	-8.46358	21.3341	100.766	-35.3225	32.0428	90.9204	-41.9867	66.0063	100.943	2.43069	37.2328	109.482	-29.0932	49.9463	93.3261	-31.42	79.2984	65.3747	38.3126	64.1521	57.5408	45.7101	99.8899	31.274	22.8837	82.9671	
